# File created by Blade
# Date/Time:  Thu Mar 15 16:00:31 2018
#---------------------------------------------------------
:version 1.10
:name HOM
:units
  mass 1.0
  length 1.000000
  angle deg
:documentation
     Acclaim Skeleton File
:root
   axis xyz
   order TX TY TZ RX RZ RY
   position 0.000000 0.000000 0.000000
   orientation 0 0 0
:bonedata
   begin
      id 1
      name Spine_dum
      direction 0.000000 0.554700 0.832050
      length 3.185137
      axis 0.0 0.0 0.0 xyz
   end
   begin
      id 2
      name RightUpLeg_dum
      direction -0.959879 0.000000 -0.280414
      length 3.741437
      axis 0.0 0.0 0.0 xyz
   end
   begin
      id 3
      name LeftUpLeg_dum
      direction 0.959879 0.000000 -0.280414
      length 3.741437
      axis 0.0 0.0 0.0 xyz
   end
   begin
      id 4
      name Spine
      direction 0.000000 0.173648 0.984808
      length 3.533592
      axis -10.0 0.0 0.0 xyz
      dof rx rz ry
   end
   begin
      id 5
      name Spine1
      direction 0.000000 0.087156 0.996195
      length 3.533592
      axis -5.0 0.0 0.0 xyz
      dof rx rz ry
   end
   begin
      id 6
      name Spine2
      direction 0.000000 0.000000 1.000000
      length 3.533592
      axis 0.0 0.0 0.0 xyz
      dof rx rz ry
   end
   begin
      id 7
      name Spine3
      direction 0.000000 -0.141421 0.989949
      length 0.000000
      axis 0.0 0.0 0.0 xyz
      dof rx rz ry
   end
   begin
      id 8
      name Spine3_dum1
      direction 0.000000 -0.141421 0.989949
      length 9.369850
      axis 0.0 0.0 0.0 xyz
   end
   begin
      id 9
      name Spine3_dum2
      direction -0.174242 -0.290403 0.940907
      length 6.947577
      axis 0.0 0.0 0.0 xyz
   end
   begin
      id 10
      name Spine3_dum3
      direction 0.174242 -0.290403 0.940907
      length 6.947577
      axis 0.0 0.0 0.0 xyz
   end
   begin
      id 11
      name Neck
      direction 0.000000 -0.173648 0.984808
      length 4.858689
      axis 10.0 0.0 0.0 xyz
      dof rx rz ry
   end
   begin
      id 12
      name Head
      direction 0.000000 0.000000 1.000000
      length 5.720002
      axis 0.0 0.0 0.0 xyz
      dof rx rz ry
   end
   begin
      id 13
      name RightShoulder
      direction -1.000000 0.000000 0.000000
      length 6.012446
      axis -180.0 0.0 -180.0 xyz
      dof rz rx ry
   end
   begin
      id 14
      name RightArm
      direction -1.000000 0.000000 0.000000
      length 11.728112
      axis -180.0 0.0 -180.0 xyz
      dof ry rz rx
   end
   begin
      id 15
      name RightForeArm
      direction -1.000000 0.000000 0.000000
      length 4.841601
      axis -180.0 0.0 -180.0 xyz
      dof rx ry rz
   end
   begin
      id 16
      name RightForeArmRoll
      direction -1.000000 0.000000 0.000000
      length 5.003964
      axis -180.0 0.0 -180.0 xyz
      dof rx ry rz
   end
   begin
      id 17
      name RightHand
      direction -1.000000 0.000000 0.000000
      length 0.000000
      axis -180.0 0.0 -180.0 xyz
      dof rx ry rz
   end
   begin
      id 18
      name RightHand_dum1
      direction -1.000000 0.000000 0.000000
      length 2.836875
      axis -180.0 0.0 -180.0 xyz
   end
   begin
      id 19
      name RightHand_dum2
      direction -0.486664 -0.811107 -0.324443
      length 2.331690
      axis -180.0 0.0 -180.0 xyz
   end
   begin
      id 20
      name RightHandEnd
      direction -1.000000 0.000000 0.000000
      length 2.836875
      axis 90.0 0.0 -180.0 xyz
      dof rx ry rz
   end
   begin
      id 21
      name RightHandThumb1
      direction -0.965926 -0.258819 0.000000
      length 2.836875
      axis -10.0 0.0 -165.0 xyz
      dof rx ry rz
   end
   begin
      id 22
      name LeftShoulder
      direction 1.000000 0.000000 0.000000
      length 6.012446
      axis 0.0 0.0 0.0 xyz
      dof rz rx ry
   end
   begin
      id 23
      name LeftArm
      direction 1.000000 0.000000 0.000000
      length 11.728112
      axis 0.0 0.0 0.0 xyz
      dof ry rz rx
   end
   begin
      id 24
      name LeftForeArm
      direction 1.000000 0.000000 0.000000
      length 4.841601
      axis 0.0 0.0 0.0 xyz
      dof rx ry rz
   end
   begin
      id 25
      name LeftForeArmRoll
      direction 1.000000 0.000000 0.000000
      length 5.003964
      axis 0.0 0.0 0.0 xyz
      dof rx ry rz
   end
   begin
      id 26
      name LeftHand
      direction 1.000000 0.000000 0.000000
      length 0.000000
      axis 0.0 0.0 0.0 xyz
      dof rx ry rz
   end
   begin
      id 27
      name LeftHand_dum1
      direction 1.000000 0.000000 0.000000
      length 2.836875
      axis 0.0 0.0 0.0 xyz
   end
   begin
      id 28
      name LeftHand_dum2
      direction 0.486664 -0.811107 -0.324443
      length 2.331690
      axis 0.0 0.0 0.0 xyz
   end
   begin
      id 29
      name LeftHandEnd
      direction 1.000000 0.000000 0.000000
      length 2.836875
      axis 90.0 0.0 0.0 xyz
      dof rx ry rz
   end
   begin
      id 30
      name LeftHandThumb1
      direction 0.965926 -0.258819 0.000000
      length 2.836875
      axis 170.0 0.0 -15.0 xyz
      dof rx ry rz
   end
   begin
      id 31
      name RightUpLeg
      direction 0.000000 0.000000 -1.000000
      length 15.861483
      axis 0.0 90.0 0.0 xyz
      dof ry rz rx
   end
   begin
      id 32
      name RightLeg
      direction 0.000000 0.000000 -1.000000
      length 17.164458
      axis 0.0 90.0 0.0 xyz
      dof rx ry rz
   end
   begin
      id 33
      name RightFoot
      direction 0.000000 -0.939693 -0.342020
      length 7.211980
      axis -90.0 20.0 -90.0 xyz
      dof rx rz ry
   end
   begin
      id 34
      name RightToeBase
      direction 0.000000 -1.000000 0.000000
      length 2.905343
      axis -90.0 0.0 -90.0 xyz
      dof ry rz rx
   end
   begin
      id 35
      name LeftUpLeg
      direction 0.000000 0.000000 -1.000000
      length 15.861483
      axis 0.0 90.0 0.0 xyz
      dof ry rz rx
   end
   begin
      id 36
      name LeftLeg
      direction 0.000000 0.000000 -1.000000
      length 17.164458
      axis 0.0 90.0 0.0 xyz
      dof rx ry rz
   end
   begin
      id 37
      name LeftFoot
      direction 0.000000 -0.939693 -0.342020
      length 7.211980
      axis -90.0 20.0 -90.0 xyz
      dof rx rz ry
   end
   begin
      id 38
      name LeftToeBase
      direction 0.000000 -1.000000 0.000000
      length 2.905343
      axis -90.0 0.0 -90.0 xyz
      dof ry rz rx
   end
:hierarchy
   begin
      root Spine_dum RightUpLeg_dum LeftUpLeg_dum
      Spine_dum Spine
      RightUpLeg_dum RightUpLeg
      LeftUpLeg_dum LeftUpLeg
      Spine Spine1
      Spine1 Spine2
      Spine2 Spine3
      Spine3 Spine3_dum1 Spine3_dum2 Spine3_dum3
      Spine3_dum1 Neck
      Spine3_dum2 RightShoulder
      Spine3_dum3 LeftShoulder
      Neck Head
      RightShoulder RightArm
      RightArm RightForeArm
      RightForeArm RightForeArmRoll
      RightForeArmRoll RightHand
      RightHand RightHand_dum1 RightHand_dum2
      RightHand_dum1 RightHandEnd
      RightHand_dum2 RightHandThumb1
      LeftShoulder LeftArm
      LeftArm LeftForeArm
      LeftForeArm LeftForeArmRoll
      LeftForeArmRoll LeftHand
      LeftHand LeftHand_dum1 LeftHand_dum2
      LeftHand_dum1 LeftHandEnd
      LeftHand_dum2 LeftHandThumb1
      RightUpLeg RightLeg
      RightLeg RightFoot
      RightFoot RightToeBase
      LeftUpLeg LeftLeg
      LeftLeg LeftFoot
      LeftFoot LeftToeBase
   end

# File created by Blade
# Date/Time:  Thu Mar 15 15:59:21 2018
# Frame Rate: 120.000 fps
#------------------------------------------------------
:FULLY-SPECIFIED
:DEGREES
66
root -0.225987 38.220175 -0.796911 -88.873604 0.188199 0.124966
Spine -0.222308 0.076158 0.368100
Spine1 -0.579533 0.000549 0.008910
Spine2 1.362218 0.388595 0.471352
Spine3 0.107390 -0.058152 -0.414969
Neck -1.194129 -0.142166 -0.068631
Head -0.979787 -1.017366 -0.202820
RightShoulder 0.943984 -4.394323 -6.085516
RightArm -68.252151 -18.895935 -8.852140
RightForeArm 0.000000 -0.000000 -31.253214
RightForeArmRoll 4.428553 -0.000000 -0.000000
RightHand 0.000000 8.039429 -3.010064
RightHandEnd 0.000000 -0.000000 0.000000
RightHandThumb1 0.000000 -0.000000 0.000000
LeftShoulder 2.955523 5.021010 6.314685
LeftArm 67.725555 -38.084743 1.713385
LeftForeArm 0.000000 -0.000000 -19.245800
LeftForeArmRoll -5.433766 -0.000000 0.000000
LeftHand 0.000000 -21.468248 0.385085
LeftHandEnd 0.000000 -0.000000 0.000000
LeftHandThumb1 0.000000 -0.000000 0.000000
RightUpLeg 4.090270 -1.522190 9.303211
RightLeg -0.000000 -0.000000 14.612037
RightFoot 4.030234 -14.904512 -1.731818
RightToeBase -0.000000 0.689659 -0.000000
LeftUpLeg -5.107497 0.128458 0.598550
LeftLeg -0.000000 -0.000000 11.474162
LeftFoot -7.880179 -12.718863 -0.104734
LeftToeBase -0.000000 0.893549 -0.000000
67
root -0.228492 38.222551 -0.799792 -88.860237 0.169410 0.124771
Spine -0.227188 0.072888 0.353870
Spine1 -0.589745 0.000302 0.007240
Spine2 1.377802 0.389423 0.467519
Spine3 0.111684 -0.057941 -0.416035
Neck -1.193273 -0.137043 -0.069780
Head -0.975281 -1.014201 -0.192896
RightShoulder 0.913404 -4.319032 -6.095665
RightArm -68.250771 -18.868549 -8.942057
RightForeArm 0.000000 -0.000000 -31.278593
RightForeArmRoll 4.546596 -0.000000 -0.000000
RightHand 0.000000 8.057576 -3.058621
RightHandEnd 0.000000 -0.000000 0.000000
RightHandThumb1 0.000000 -0.000000 0.000000
LeftShoulder 2.963338 5.033759 6.348774
LeftArm 67.634117 -38.212673 1.791891
LeftForeArm 0.000000 -0.000000 -19.232975
LeftForeArmRoll -4.472466 -0.000000 0.000000
LeftHand -0.000000 -21.316755 1.013094
LeftHandEnd 0.000000 -0.000000 0.000000
LeftHandThumb1 0.000000 -0.000000 0.000000
RightUpLeg 4.052202 -1.559746 9.379188
RightLeg -0.000000 -0.000000 14.660658
RightFoot 4.044069 -14.890307 -1.722291
RightToeBase -0.000000 0.688273 -0.000000
LeftUpLeg -5.130134 0.118244 0.606464
LeftLeg -0.000000 -0.000000 11.460093
LeftFoot -7.914170 -12.709723 -0.109562
LeftToeBase -0.000000 0.889169 -0.000000
68
root -0.228878 38.222196 -0.802418 -88.847061 0.177596 0.120464
Spine -0.231995 0.072537 0.356542
Spine1 -0.597681 0.000514 0.008842
Spine2 1.387115 0.389481 0.474426
Spine3 0.114127 -0.058845 -0.414683
Neck -1.193243 -0.137991 -0.058273
Head -0.973409 -1.007765 -0.227170
RightShoulder 0.912381 -4.301423 -6.102939
RightArm -68.247734 -18.901087 -8.964768
RightForeArm 0.000000 -0.000000 -31.274382
RightForeArmRoll 4.596482 -0.000000 -0.000000
RightHand 0.000000 8.053705 -3.074839
RightHandEnd 0.000000 -0.000000 0.000000
RightHandThumb1 0.000000 -0.000000 0.000000
LeftShoulder 2.976566 5.041183 6.337600
LeftArm 67.627167 -38.239662 1.797089
LeftForeArm 0.000000 -0.000000 -19.229944
LeftForeArmRoll -4.424012 -0.000000 0.000000
LeftHand -0.000000 -21.344631 1.036965
LeftHandEnd 0.000000 -0.000000 0.000000
LeftHandThumb1 0.000000 -0.000000 0.000000
RightUpLeg 4.060950 -1.579186 9.391422
RightLeg -0.000000 -0.000000 14.661305
RightFoot 4.052376 -14.892757 -1.740270
RightToeBase -0.000000 0.671369 -0.000000
LeftUpLeg -5.120423 0.107760 0.606710
LeftLeg -0.000000 -0.000000 11.446792
LeftFoot -7.906422 -12.704862 -0.121263
LeftToeBase -0.000000 0.889450 -0.000000
69
root -0.229438 38.221358 -0.806030 -88.825935 0.186443 0.117235
Spine -0.236820 0.071062 0.358948
Spine1 -0.606030 0.000190 0.010771
Spine2 1.392628 0.385021 0.477687
Spine3 0.116336 -0.062633 -0.411842
Neck -1.190958 -0.132075 -0.052251
Head -0.982857 -1.009402 -0.234424
RightShoulder 0.907118 -4.304701 -6.115099
RightArm -68.244965 -18.911875 -8.956427
RightForeArm 0.000000 -0.000000 -31.280132
RightForeArmRoll 4.757307 -0.000000 -0.000000
RightHand 0.000000 8.112105 -3.130447
RightHandEnd 0.000000 -0.000000 0.000000
RightHandThumb1 0.000000 -0.000000 0.000000
LeftShoulder 2.995752 5.047089 6.329566
LeftArm 67.616402 -38.255104 1.802436
LeftForeArm 0.000000 -0.000000 -19.231329
LeftForeArmRoll -4.354004 -0.000000 0.000000
LeftHand 0.000000 -21.314810 1.083902
LeftHandEnd 0.000000 -0.000000 0.000000
LeftHandThumb1 0.000000 -0.000000 0.000000
RightUpLeg 4.069076 -1.618415 9.413622
RightLeg -0.000000 -0.000000 14.673789
RightFoot 4.041415 -14.893522 -1.762041
RightToeBase -0.000000 0.658178 -0.000000
LeftUpLeg -5.113031 0.080927 0.602254
LeftLeg -0.000000 -0.000000 11.442545
LeftFoot -7.931257 -12.701860 -0.116327
LeftToeBase -0.000000 0.888184 -0.000000
70
root -0.230356 38.222247 -0.808490 -88.817879 0.189404 0.118006
Spine -0.239871 0.070404 0.358734
Spine1 -0.612574 -0.000356 0.009180
Spine2 1.402704 0.380337 0.484775
Spine3 0.119668 -0.064950 -0.409043
Neck -1.183286 -0.131929 -0.064055
Head -0.978796 -0.995505 -0.230434
RightShoulder 0.900657 -4.312186 -6.123886
RightArm -68.252312 -18.917336 -8.944213
RightForeArm 0.000000 -0.000000 -31.275278
RightForeArmRoll 4.748340 -0.000000 -0.000000
RightHand -0.000000 8.102235 -3.149764
RightHandEnd 0.000000 -0.000000 0.000000
RightHandThumb1 0.000000 -0.000000 0.000000
LeftShoulder 3.002370 5.065968 6.328245
LeftArm 67.605827 -38.253761 1.791503
LeftForeArm 0.000000 -0.000000 -19.225622
LeftForeArmRoll -4.343474 -0.000000 0.000000
LeftHand 0.000000 -21.292637 1.092078
LeftHandEnd 0.000000 -0.000000 0.000000
LeftHandThumb1 0.000000 -0.000000 0.000000
RightUpLeg 4.071170 -1.634816 9.420998
RightLeg -0.000000 -0.000000 14.679917
RightFoot 4.053324 -14.898879 -1.781801
RightToeBase -0.000000 0.658667 -0.000000
LeftUpLeg -5.110124 0.074833 0.620065
LeftLeg -0.000000 -0.000000 11.430672
LeftFoot -7.924798 -12.690031 -0.126011
LeftToeBase -0.000000 0.882456 -0.000000
